<svg xmlns="http://www.w3.org/2000/svg" viewBox="0 0 96 96"><defs><style>.cls-1{fill:#ed5338;}.cls-2{fill:#c59368;}</style></defs><g id="img"><path class="cls-1" d="M55.22,79.94,48,72.67l-7.22,7.27L48,95.25Z"/><path class="cls-2" d="M48,41a5.11,5.11,0,1,0-5.07-5.11A5.09,5.09,0,0,0,48,41Z"/><path class="cls-2" d="M48,8.13c-1.52.76-21.53,11.48-21.53,28.44,0,14.54,11.78,36.61,11.78,36.61L48,63.36l9.75,9.82S69.53,51.11,69.53,36.57C69.53,19.61,49.52,8.89,48,8.13Zm6.46,48.6L48,50.22l-6.46,6.51c-.38-.9-4.68-12.63-4.68-20.41C36.86,26,47.11,20.12,48,19.73c.76.39,11.14,6.25,11.14,16.59C59,44.1,54.71,55.83,54.46,56.73Z"/><path class="cls-2" d="M76.87,8.15,69.53.75l-7.34,7.4,7.34,7.39Z"/></g></svg>