<svg xmlns="http://www.w3.org/2000/svg" viewBox="0 0 180 60"><defs><style>.cls-1{fill:#562212;}.cls-2{fill:#ed5338;}.cls-3{fill:#c59368;}</style></defs><g id="img"><path class="cls-1" d="M81,19c0,1-.49,1.55-1.22,1.55S78.58,20,78.58,19h-4c.08,2.94,1.79,5,5.28,5,3.25,0,5-2.05,5.2-5Z"/><path class="cls-1" d="M72.57,39V25.09H77.2v6.47a7,7,0,0,1-.08,1h.16l5-7.53h4.47V38.92H82.16V32.37a5.25,5.25,0,0,1,.08-.9h-.17L77,39Z"/><path class="cls-1" d="M63,24.77c4.38,0,7.71,3.1,7.71,7.36S67.45,39.41,63,39.41s-7.64-3.11-7.64-7.28A7.28,7.28,0,0,1,63,24.77Zm0,10.3a2.74,2.74,0,0,0,2.76-2.94,2.78,2.78,0,1,0-5.53,0A2.74,2.74,0,0,0,63,35.07Z"/><path class="cls-1" d="M49.75,25.09s-3.9,5.08-4.07,5.24a3.4,3.4,0,0,1-.24.33h-.16s0-.17-.25-.33c-.16-.33-4.22-5.24-4.22-5.24H37.16V39h4.46V33.19a4.62,4.62,0,0,0-.08-1h.16l3.58,4.17h.24l3.33-4.17H49a5,5,0,0,0-.09,1V39H53.4V25.09Z"/><path class="cls-1" d="M99.75,25.08a6.37,6.37,0,0,0-5.69,3.27H93.9a1.53,1.53,0,0,0,.16-.57c.25-3,1.38-5.4,3.74-6.22a37.84,37.84,0,0,1,4-1c1.14-.25,2.35-.58,3.08-.74l-.81-2.37c-1.3.32-2.52.65-4.46,1.06a11.66,11.66,0,0,0-2.85.82c-3.65,1.47-5.28,4.58-5.28,10.47,0,5.32,2.6,9.49,7.64,9.49A7.2,7.2,0,0,0,106.49,32C106.57,27.86,103.89,25.08,99.75,25.08ZM99.1,36.94c-3.09,0-4.88-2.86-4.88-6.14a5.84,5.84,0,0,1,5-3.43c2.76,0,4.55,1.72,4.55,4.74A4.58,4.58,0,0,1,99.1,36.94Z"/><path class="cls-1" d="M111.2,34.89H111a3,3,0,0,0,.16-.9V24.91h-2.76V38.82h2.44l7.87-10h.17a3,3,0,0,0-.17.9v9.08h2.77V24.91h-2.44Z"/><path class="cls-1" d="M132.08,31.7a3.37,3.37,0,0,0,2.43-3.35c0-2.29-1.87-3.85-5.2-3.85a9.77,9.77,0,0,0-5.6,1.8l1.06,2a6.93,6.93,0,0,1,4.14-1.48c1.78,0,2.76.74,2.76,2s-.89,1.88-2.27,1.88h-2.2v2.13h2.44c1.7,0,2.52.57,2.52,1.72,0,1.39-1.38,2.29-3.41,2.29a7.05,7.05,0,0,1-4.23-1.56l-1,2a8.76,8.76,0,0,0,5.68,1.88c3.33,0,5.85-1.72,5.85-4.34A3.16,3.16,0,0,0,132.08,31.7Z"/><path class="cls-1" d="M147,30.64h-7.39V24.91h-2.76V38.82h2.76v-6H147v6h2.76V24.91H147Z"/><path class="cls-1" d="M158.39,24.59c-4.06,0-6.74,3.19-6.74,7.44s2.68,7.28,7.47,7.28a9.17,9.17,0,0,0,5.77-1.88l-1-2A7.58,7.58,0,0,1,159.29,37c-3,0-4.47-1.63-4.71-4.09h10.56c0-.24.08-.57.08-.9C165.14,27.78,163.11,24.59,158.39,24.59Zm-3.81,6.13a4.25,4.25,0,0,1,4-3.84c2.51,0,3.73,1.71,3.9,3.84Z"/><path class="cls-1" d="M174.64,36.94a4.82,4.82,0,0,1-4.87-5.15A4.51,4.51,0,0,1,174.48,27a8.07,8.07,0,0,1,4.38,1.39L180,26.3a9.75,9.75,0,0,0-5.6-1.8,7.11,7.11,0,0,0-7.48,7.37,7.2,7.2,0,0,0,7.48,7.36,9,9,0,0,0,5.6-1.8l-1.06-2A7.12,7.12,0,0,1,174.64,36.94Z"/><path class="cls-2" d="M18.07,50.08l-4.54-4.57L9,50.08l4.54,9.62Z"/><path class="cls-3" d="M13.53,25.62a3.21,3.21,0,1,0-3.18-3.2A3.19,3.19,0,0,0,13.53,25.62Z"/><path class="cls-3" d="M13.53,4.94C12.58,5.42,0,12.15,0,22.82c0,9.14,7.4,23,7.4,23l6.13-6.18,6.13,6.18s7.4-13.87,7.4-23C27.06,12.15,14.49,5.42,13.53,4.94Zm4.06,30.54L13.53,31.4,9.47,35.48c-.24-.56-2.94-7.93-2.94-12.82,0-6.5,6.44-10.19,7-10.43.48.24,7,3.93,7,10.43C20.46,27.55,17.75,34.92,17.59,35.48Z"/><path class="cls-3" d="M31.68,5,27.06.3,22.45,5,27.06,9.6Z"/></g></svg>